<svg xmlns="http://www.w3.org/2000/svg" width="400" height="300" viewBox="0 0 400 300" role="img" aria-labelledby="title desc">
<title id="title">Describe your situation</title>
<desc id="desc">Editorial data illustration for the StatWise interface.</desc>
<defs>
  <filter id="shadow" x="-30%" y="-30%" width="160%" height="160%">
    <feDropShadow dx="0" dy="12" stdDeviation="14" flood-color="#18343A" flood-opacity=".12"/>
  </filter>
  <linearGradient id="tealGrad" x1="0" x2="1" y1="0" y2="1">
    <stop stop-color="#47AAA2"/>
    <stop offset="1" stop-color="#207A77"/>
  </linearGradient>
  <linearGradient id="skyGrad" x1="0" x2="0" y1="0" y2="1">
    <stop stop-color="#F1FBFA"/>
    <stop offset="1" stop-color="#E5F4F2"/>
  </linearGradient>
</defs>

<rect x="20" y="20" width="360" height="260" rx="28" fill="#F5FAFA"/>
<g filter="url(#shadow)"><rect x="64" y="48" width="272" height="204" rx="22" fill="#FFFFFF"/></g>
<circle cx="114" cy="103" r="28" fill="#DDF3F0"/>
<circle cx="114" cy="95" r="10" fill="#2B8F8A"/>
<path d="M96 126 C100 111 106 107 114 107 C123 107 129 111 133 126Z" fill="#2B8F8A"/>
<rect x="158" y="84" width="124" height="12" rx="6" fill="#D9E5E7"/>
<rect x="158" y="108" width="88" height="10" rx="5" fill="#D9E5E7"/>
<g transform="translate(88 158)">
 <rect width="68" height="52" rx="13" fill="#E5ECFF"/><path d="M22 26 h24 M34 14 v24" stroke="#4C78D8" stroke-width="5" stroke-linecap="round"/>
 <rect x="78" width="68" height="52" rx="13" fill="#FFF0D6"/><circle cx="112" cy="25" r="12" fill="none" stroke="#DB9B34" stroke-width="5"/>
 <rect x="156" width="68" height="52" rx="13" fill="#E5F6E9"/><path d="M177 31 l10-10 10 10" fill="none" stroke="#4FA66A" stroke-width="5" stroke-linecap="round"/>
</g>

</svg>