<svg xmlns="http://www.w3.org/2000/svg" width="400" height="300" viewBox="0 0 400 300" role="img" aria-labelledby="title desc">
<title id="title">Analyse official data</title>
<desc id="desc">Editorial data illustration for the StatWise interface.</desc>
<defs>
  <filter id="shadow" x="-30%" y="-30%" width="160%" height="160%">
    <feDropShadow dx="0" dy="12" stdDeviation="14" flood-color="#18343A" flood-opacity=".12"/>
  </filter>
  <linearGradient id="tealGrad" x1="0" x2="1" y1="0" y2="1">
    <stop stop-color="#47AAA2"/>
    <stop offset="1" stop-color="#207A77"/>
  </linearGradient>
  <linearGradient id="skyGrad" x1="0" x2="0" y1="0" y2="1">
    <stop stop-color="#F1FBFA"/>
    <stop offset="1" stop-color="#E5F4F2"/>
  </linearGradient>
</defs>

<rect x="20" y="20" width="360" height="260" rx="28" fill="#F5FAFA"/>
<g filter="url(#shadow)"><rect x="54" y="53" width="292" height="194" rx="24" fill="#FFFFFF"/></g>
<g transform="translate(85 82)">
 <rect width="56" height="44" rx="12" fill="#DDF3F0"/><circle cx="18" cy="22" r="7" fill="#2B8F8A"/><rect x="31" y="13" width="15" height="6" rx="3" fill="#2B8F8A"/><rect x="31" y="25" width="15" height="6" rx="3" fill="#2B8F8A"/>
 <rect y="58" width="56" height="44" rx="12" fill="#E5ECFF"/><path d="M14 30 v-15 h28 v15" transform="translate(0 58)" fill="none" stroke="#4C78D8" stroke-width="4"/>
 <rect y="116" width="56" height="44" rx="12" fill="#FFF0D6"/><path d="M15 25 h26 M20 15 h16" transform="translate(0 116)" stroke="#DB9B34" stroke-width="5" stroke-linecap="round"/>
</g>
<path d="M151 104 H191 M151 162 H191 M151 220 H191" stroke="#D9E5E7" stroke-width="5" stroke-linecap="round"/>
<circle cx="228" cy="161" r="48" fill="#DDF3F0"/>
<path d="M228 128 v66 M195 161 h66" stroke="#2B8F8A" stroke-width="8" stroke-linecap="round" opacity=".7"/>
<circle cx="228" cy="161" r="17" fill="#2B8F8A"/>
<path d="M277 161 h35" stroke="#2B8F8A" stroke-width="6" stroke-linecap="round"/>
<path d="M303 150 l12 11-12 11" fill="none" stroke="#2B8F8A" stroke-width="6" stroke-linecap="round"/>

</svg>