<svg xmlns="http://www.w3.org/2000/svg" width="400" height="300" viewBox="0 0 400 300" role="img" aria-labelledby="title desc">
<title id="title">Receive ranked neighbourhoods</title>
<desc id="desc">Editorial data illustration for the StatWise interface.</desc>
<defs>
  <filter id="shadow" x="-30%" y="-30%" width="160%" height="160%">
    <feDropShadow dx="0" dy="12" stdDeviation="14" flood-color="#18343A" flood-opacity=".12"/>
  </filter>
  <linearGradient id="tealGrad" x1="0" x2="1" y1="0" y2="1">
    <stop stop-color="#47AAA2"/>
    <stop offset="1" stop-color="#207A77"/>
  </linearGradient>
  <linearGradient id="skyGrad" x1="0" x2="0" y1="0" y2="1">
    <stop stop-color="#F1FBFA"/>
    <stop offset="1" stop-color="#E5F4F2"/>
  </linearGradient>
</defs>

<rect x="20" y="20" width="360" height="260" rx="28" fill="#F5FAFA"/>
<g filter="url(#shadow)"><rect x="50" y="52" width="300" height="196" rx="24" fill="#FFFFFF"/></g>
<path d="M77 95 C125 64 159 99 202 75 C248 50 303 80 323 119 C344 160 316 202 269 215 C218 229 188 192 143 213 C93 235 57 189 71 146 C76 129 66 110 77 95Z"
      fill="#DDF3F0" stroke="#2B8F8A" stroke-width="3"/>
<path d="M95 118 C145 137 190 120 232 142 C260 157 291 151 320 136M157 79 C142 121 151 174 132 211"
      fill="none" stroke="#fff" stroke-width="8" stroke-linecap="round"/>
<g filter="url(#shadow)">
      <path d="M 145 143.48 C 128.66 121.98, 129.52 101.34, 145 101.34
               C 160.48 101.34, 161.34 121.98, 145 143.48 Z" fill="#2B8F8A"/>
      <circle cx="145" cy="120.26" r="8.6" fill="#fff" opacity=".18"/>
      <text x="145" y="123.7" text-anchor="middle" font-family="Arial,sans-serif" font-weight="700" font-size="12.04" fill="#fff">1</text>
    </g>
<g filter="url(#shadow)">
      <path d="M 252 172.04 C 237.18 152.54, 237.96 133.82, 252 133.82
               C 266.04 133.82, 266.82 152.54, 252 172.04 Z" fill="#4C78D8"/>
      <circle cx="252" cy="150.98" r="7.800000000000001" fill="#fff" opacity=".18"/>
      <text x="252" y="154.1" text-anchor="middle" font-family="Arial,sans-serif" font-weight="700" font-size="10.92" fill="#fff">2</text>
    </g>
<g filter="url(#shadow)">
      <path d="M 182 210.96 C 168.32 192.96, 169.04 175.68, 182 175.68
               C 194.96 175.68, 195.68 192.96, 182 210.96 Z" fill="#DB9B34"/>
      <circle cx="182" cy="191.52" r="7.199999999999999" fill="#fff" opacity=".18"/>
      <text x="182" y="194.4" text-anchor="middle" font-family="Arial,sans-serif" font-weight="700" font-size="10.08" fill="#fff">3</text>
    </g>

</svg>