<svg xmlns="http://www.w3.org/2000/svg" width="640" height="400" viewBox="0 0 640 400" role="img" aria-labelledby="title desc">
<title id="title">Family simulator illustration</title>
<desc id="desc">Editorial data illustration for the StatWise interface.</desc>
<defs>
  <filter id="shadow" x="-30%" y="-30%" width="160%" height="160%">
    <feDropShadow dx="0" dy="12" stdDeviation="14" flood-color="#18343A" flood-opacity=".12"/>
  </filter>
  <linearGradient id="tealGrad" x1="0" x2="1" y1="0" y2="1">
    <stop stop-color="#47AAA2"/>
    <stop offset="1" stop-color="#207A77"/>
  </linearGradient>
  <linearGradient id="skyGrad" x1="0" x2="0" y1="0" y2="1">
    <stop stop-color="#F1FBFA"/>
    <stop offset="1" stop-color="#E5F4F2"/>
  </linearGradient>
</defs>

<rect x="24" y="24" width="592" height="352" rx="32" fill="#FFF0D6"/>
<circle cx="514" cy="86" r="44" fill="#FFF8EA"/>
<g filter="url(#shadow)">
  <rect x="70" y="74" width="500" height="236" rx="26" fill="#FFFFFF"/>
</g>
<!-- neighborhood -->
<g transform="translate(94 118)">
  <g>
    <rect x="0" y="55" width="70" height="105" rx="8" fill="#4C78D8"/>
    <rect x="8.0" y="71" width="8" height="12" rx="2" fill="#fff" opacity=".75"/><rect x="54.0" y="71" width="8" height="12" rx="2" fill="#fff" opacity=".75"/><rect x="8.0" y="95" width="8" height="12" rx="2" fill="#fff" opacity=".75"/><rect x="54.0" y="95" width="8" height="12" rx="2" fill="#fff" opacity=".75"/>
    <rect x="27.0" y="135" width="16" height="25" rx="3" fill="#fff" opacity=".85"/>
    </g>
  <g>
    <rect x="79" y="31" width="86" height="129" rx="8" fill="#2B8F8A"/>
    <rect x="87.0" y="47" width="8" height="12" rx="2" fill="#fff" opacity=".75"/><rect x="118.0" y="47" width="8" height="12" rx="2" fill="#fff" opacity=".75"/><rect x="149.0" y="47" width="8" height="12" rx="2" fill="#fff" opacity=".75"/><rect x="87.0" y="71" width="8" height="12" rx="2" fill="#fff" opacity=".75"/><rect x="118.0" y="71" width="8" height="12" rx="2" fill="#fff" opacity=".75"/><rect x="149.0" y="71" width="8" height="12" rx="2" fill="#fff" opacity=".75"/>
    <rect x="114.0" y="135" width="16" height="25" rx="3" fill="#fff" opacity=".85"/>
    </g>
  <g>
    <rect x="175" y="72" width="62" height="88" rx="8" fill="#8B63D9"/>
    <rect x="183.0" y="88" width="8" height="12" rx="2" fill="#fff" opacity=".75"/><rect x="221.0" y="88" width="8" height="12" rx="2" fill="#fff" opacity=".75"/><rect x="183.0" y="112" width="8" height="12" rx="2" fill="#fff" opacity=".75"/><rect x="221.0" y="112" width="8" height="12" rx="2" fill="#fff" opacity=".75"/>
    <rect x="198.0" y="135" width="16" height="25" rx="3" fill="#fff" opacity=".85"/>
    </g>
  <path d="M0 160 H240" stroke="#D9E5E7" stroke-width="8" stroke-linecap="round"/>
  <circle cx="22" cy="32" r="18" fill="#EAF7E3"/><path d="M22 20 v34 M10 37 h24" stroke="#62A84A" stroke-width="7" stroke-linecap="round"/>
  <circle cx="222" cy="38" r="20" fill="#FFE8EC"/><path d="M222 27 v22 M211 38 h22" stroke="#D96C7A" stroke-width="6" stroke-linecap="round"/>
</g>
<!-- family -->
<g transform="translate(360 116)">
  <circle cx="58" cy="28" r="20" fill="#DB9B34"/>
  <path d="M32 104 C34 68 39 52 58 52 C77 52 84 68 85 104Z" fill="#2B8F8A"/>
  <circle cx="117" cy="43" r="16" fill="#D96C7A"/>
  <path d="M97 104 C99 74 102 61 117 61 C132 61 137 74 138 104Z" fill="#8B63D9"/>
  <circle cx="86" cy="73" r="12" fill="#4C78D8"/>
  <path d="M71 132 C72 103 75 89 86 89 C98 89 101 103 102 132Z" fill="#DB9B34"/>
  <path d="M26 135 H148" stroke="#D9E5E7" stroke-width="8" stroke-linecap="round"/>
</g>
<!-- orbit icons -->
<g>
  <circle cx="488" cy="164" r="24" fill="#E5F6E9"/><path d="M478 165 l8 8 14-18" fill="none" stroke="#4FA66A" stroke-width="5" stroke-linecap="round"/>
  <circle cx="521" cy="232" r="24" fill="#E5ECFF"/><path d="M510 235 h22 M514 227 l6-7 9 7" fill="none" stroke="#4C78D8" stroke-width="4" stroke-linecap="round"/>
</g>

</svg>