<svg xmlns="http://www.w3.org/2000/svg" width="640" height="400" viewBox="0 0 640 400" role="img" aria-labelledby="title desc">
<title id="title">Neighbourhood simulator illustration</title>
<desc id="desc">Editorial data illustration for the StatWise interface.</desc>
<defs>
  <filter id="shadow" x="-30%" y="-30%" width="160%" height="160%">
    <feDropShadow dx="0" dy="12" stdDeviation="14" flood-color="#18343A" flood-opacity=".12"/>
  </filter>
  <linearGradient id="tealGrad" x1="0" x2="1" y1="0" y2="1">
    <stop stop-color="#47AAA2"/>
    <stop offset="1" stop-color="#207A77"/>
  </linearGradient>
  <linearGradient id="skyGrad" x1="0" x2="0" y1="0" y2="1">
    <stop stop-color="#F1FBFA"/>
    <stop offset="1" stop-color="#E5F4F2"/>
  </linearGradient>
</defs>

<rect x="24" y="24" width="592" height="352" rx="32" fill="url(#skyGrad)"/>
<path d="M92 278 C125 232 158 228 196 246 C233 264 267 235 302 197 C344 151 383 170 426 190 C465 209 507 188 551 144"
      fill="none" stroke="#2B8F8A" stroke-width="12" stroke-linecap="round" opacity=".18"/>
<g filter="url(#shadow)">
  <rect x="66" y="70" width="468" height="246" rx="24" fill="#FFFFFF"/>
</g>
<g transform="translate(90 96)">
  <path d="M10 68 C60 25 117 48 154 29 C201 5 241 40 271 72 C299 102 331 117 345 151 C326 187 281 197 240 179 C196 160 159 205 104 186 C52 168 38 124 10 68Z"
        fill="#DDF3F0" stroke="#2B8F8A" stroke-width="3"/>
  <path d="M52 60 C100 93 137 106 207 93 C260 84 287 111 328 135M105 36 C128 86 126 138 108 183M236 47 C216 94 230 138 269 180"
        fill="none" stroke="#fff" stroke-width="8" stroke-linecap="round"/>
  <g filter="url(#shadow)">
      <path d="M 126 117 C 107 92, 108 68, 126 68
               C 144 68, 145 92, 126 117 Z" fill="#2B8F8A"/>
      <circle cx="126" cy="90" r="10" fill="#fff" opacity=".18"/>
      <text x="126" y="94" text-anchor="middle" font-family="Arial,sans-serif" font-weight="700" font-size="14" fill="#fff">1</text>
    </g>
  <g filter="url(#shadow)">
      <path d="M 248 135.2 C 230.9 112.7, 231.8 91.1, 248 91.1
               C 264.2 91.1, 265.1 112.7, 248 135.2 Z" fill="#4C78D8"/>
      <circle cx="248" cy="110.9" r="9.0" fill="#fff" opacity=".18"/>
      <text x="248" y="114.5" text-anchor="middle" font-family="Arial,sans-serif" font-weight="700" font-size="12.6" fill="#fff">2</text>
    </g>
  <g filter="url(#shadow)">
      <path d="M 176 183.76 C 160.42000000000002 163.26, 161.24 143.58, 176 143.58
               C 190.76 143.58, 191.57999999999998 163.26, 176 183.76 Z" fill="#DB9B34"/>
      <circle cx="176" cy="161.62" r="8.2" fill="#fff" opacity=".18"/>
      <text x="176" y="164.9" text-anchor="middle" font-family="Arial,sans-serif" font-weight="700" font-size="11.479999999999999" fill="#fff">3</text>
    </g>
</g>
<g transform="translate(455 105)">
  <rect width="118" height="175" rx="18" fill="#F5FAFA" stroke="#D9E5E7"/>
  <circle cx="59" cy="48" r="29" fill="#DDF3F0"/>
  <path d="M45 52 L58 39 L72 52 V68 H45Z" fill="#2B8F8A"/>
  <rect x="24" y="92" width="70" height="10" rx="5" fill="#D9E5E7"/>
  <rect x="24" y="92" width="58" height="10" rx="5" fill="#2B8F8A"/>
  <rect x="24" y="118" width="70" height="10" rx="5" fill="#D9E5E7"/>
  <rect x="24" y="118" width="47" height="10" rx="5" fill="#4C78D8"/>
  <rect x="24" y="144" width="70" height="10" rx="5" fill="#D9E5E7"/>
  <rect x="24" y="144" width="62" height="10" rx="5" fill="#DB9B34"/>
</g>

</svg>