<svg xmlns="http://www.w3.org/2000/svg" width="400" height="300" viewBox="0 0 400 300" role="img" aria-labelledby="title desc">
<title id="title">Family age scenario sport</title>
<desc id="desc">Editorial data illustration for the StatWise interface.</desc>
<defs>
  <filter id="shadow" x="-30%" y="-30%" width="160%" height="160%">
    <feDropShadow dx="0" dy="12" stdDeviation="14" flood-color="#18343A" flood-opacity=".12"/>
  </filter>
  <linearGradient id="tealGrad" x1="0" x2="1" y1="0" y2="1">
    <stop stop-color="#47AAA2"/>
    <stop offset="1" stop-color="#207A77"/>
  </linearGradient>
  <linearGradient id="skyGrad" x1="0" x2="0" y1="0" y2="1">
    <stop stop-color="#F1FBFA"/>
    <stop offset="1" stop-color="#E5F4F2"/>
  </linearGradient>
</defs>

    <rect x="20" y="20" width="360" height="260" rx="28" fill="#F5FAFA"/>
    <path d="M38 218 C92 191 141 216 187 192 C232 168 286 179 361 144" fill="none" stroke="#D9E5E7" stroke-width="10" stroke-linecap="round"/>
    <g>
    <rect x="65" y="110" width="62" height="100" rx="8" fill="#2B8F8A"/>
    <rect x="73.0" y="126" width="8" height="12" rx="2" fill="#fff" opacity=".75"/><rect x="111.0" y="126" width="8" height="12" rx="2" fill="#fff" opacity=".75"/><rect x="73.0" y="150" width="8" height="12" rx="2" fill="#fff" opacity=".75"/><rect x="111.0" y="150" width="8" height="12" rx="2" fill="#fff" opacity=".75"/>
    <rect x="88.0" y="185" width="16" height="25" rx="3" fill="#fff" opacity=".85"/>
    </g>
    <circle cx="95" cy="88" r="20" fill="#EAF7E3"/><path d="M95 75 v34 M82 92 h26" stroke="#62A84A" stroke-width="6" stroke-linecap="round"/>
    <circle cx="214" cy="142" r="43" fill="#E5ECFF"/><circle cx="214" cy="142" r="28" fill="none" stroke="#4C78D8" stroke-width="7"/><path d="M193 124 l42 36 M235 124 l-42 36 M187 142 h54" stroke="#4C78D8" stroke-width="5"/>
    <g transform="translate(292 94)">
      <circle cx="22" cy="22" r="22" fill="#E5F6E9"/>
      <path d="M13 22 l7 7 13-16" fill="none" stroke="#4FA66A" stroke-width="5" stroke-linecap="round"/>
    </g>
    
</svg>