<svg xmlns="http://www.w3.org/2000/svg" width="720" height="520" viewBox="0 0 720 520" role="img" aria-labelledby="title desc">
<title id="title">Preview of a StatWise neighbourhood result</title>
<desc id="desc">Editorial data illustration for the StatWise interface.</desc>
<defs>
  <filter id="shadow" x="-30%" y="-30%" width="160%" height="160%">
    <feDropShadow dx="0" dy="12" stdDeviation="14" flood-color="#18343A" flood-opacity=".12"/>
  </filter>
  <linearGradient id="tealGrad" x1="0" x2="1" y1="0" y2="1">
    <stop stop-color="#47AAA2"/>
    <stop offset="1" stop-color="#207A77"/>
  </linearGradient>
  <linearGradient id="skyGrad" x1="0" x2="0" y1="0" y2="1">
    <stop stop-color="#F1FBFA"/>
    <stop offset="1" stop-color="#E5F4F2"/>
  </linearGradient>
</defs>

<rect x="24" y="24" width="672" height="472" rx="34" fill="url(#skyGrad)"/>
<circle cx="585" cy="92" r="52" fill="#FFF0D6"/>
<circle cx="104" cy="420" r="70" fill="#E5ECFF"/>
<g filter="url(#shadow)">
  <rect x="66" y="64" width="588" height="378" rx="28" fill="#FFFFFF"/>
</g>
<!-- map -->
<g transform="translate(92 92)">
  <rect width="330" height="296" rx="22" fill="#F5FAFA"/>
  <path d="M22 55 C95 20 127 72 191 45 C242 24 292 46 310 85
           C335 140 289 171 301 226 C308 260 252 279 211 257
           C165 232 132 281 79 255 C30 232 45 182 20 151 C-5 120 5 80 22 55Z"
        fill="#DDF3F0" stroke="#2B8F8A" stroke-width="3"/>
  <path d="M72 48 C96 112 84 165 124 249M183 49 C156 111 180 176 164 264M260 69 C226 117 244 183 286 230"
        fill="none" stroke="#fff" stroke-width="9" stroke-linecap="round"/>
  <path d="M31 145 C104 126 167 155 297 107M48 216 C131 188 205 214 296 197"
        fill="none" stroke="#fff" stroke-width="7" stroke-linecap="round"/>
  <g filter="url(#shadow)">
      <path d="M 108 140 C 89 115, 90 91, 108 91
               C 126 91, 127 115, 108 140 Z" fill="#2B8F8A"/>
      <circle cx="108" cy="113" r="10" fill="#fff" opacity=".18"/>
      <text x="108" y="117" text-anchor="middle" font-family="Arial,sans-serif" font-weight="700" font-size="14" fill="#fff">1</text>
    </g>
  <g filter="url(#shadow)">
      <path d="M 228 180.56 C 210.52 157.56, 211.44 135.48, 228 135.48
               C 244.56 135.48, 245.48 157.56, 228 180.56 Z" fill="#4C78D8"/>
      <circle cx="228" cy="155.72" r="9.200000000000001" fill="#fff" opacity=".18"/>
      <text x="228" y="159.4" text-anchor="middle" font-family="Arial,sans-serif" font-weight="700" font-size="12.88" fill="#fff">2</text>
    </g>
  <g filter="url(#shadow)">
      <path d="M 166 247.48 C 149.66 225.98, 150.52 205.34, 166 205.34
               C 181.48 205.34, 182.34 225.98, 166 247.48 Z" fill="#DB9B34"/>
      <circle cx="166" cy="224.26" r="8.6" fill="#fff" opacity=".18"/>
      <text x="166" y="227.7" text-anchor="middle" font-family="Arial,sans-serif" font-weight="700" font-size="12.04" fill="#fff">3</text>
    </g>
  <circle cx="61" cy="91" r="10" fill="#62A84A" opacity=".9"/>
  <circle cx="274" cy="238" r="13" fill="#62A84A" opacity=".8"/>
</g>
<!-- score panel -->
<g transform="translate(447 91)">
  <rect width="180" height="297" rx="22" fill="#F5FAFA"/>
  <text x="24" y="36" font-family="Arial,sans-serif" font-size="13" font-weight="700" fill="#6F7F86">TOP MATCH</text>
  <text x="24" y="69" font-family="Arial,sans-serif" font-size="22" font-weight="700" fill="#20313A">Montchapet</text>
  <circle cx="90" cy="132" r="47" fill="none" stroke="#D9E5E7" stroke-width="12"/>
  <path d="M90 85 A47 47 0 1 1 49 155" fill="none" stroke="url(#tealGrad)" stroke-width="12" stroke-linecap="round"/>
  <text x="90" y="141" text-anchor="middle" font-family="Arial,sans-serif" font-size="28" font-weight="800" fill="#20313A">86</text>
  <text x="90" y="159" text-anchor="middle" font-family="Arial,sans-serif" font-size="11" fill="#6F7F86">/ 100</text>
  <g transform="translate(24 201)">
    <circle cx="7" cy="7" r="7" fill="#2B8F8A"/><rect x="22" y="2" width="105" height="10" rx="5" fill="#D9E5E7"/><rect x="22" y="2" width="90" height="10" rx="5" fill="#2B8F8A"/>
    <circle cx="7" cy="34" r="7" fill="#4C78D8"/><rect x="22" y="29" width="105" height="10" rx="5" fill="#D9E5E7"/><rect x="22" y="29" width="78" height="10" rx="5" fill="#4C78D8"/>
    <circle cx="7" cy="61" r="7" fill="#DB9B34"/><rect x="22" y="56" width="105" height="10" rx="5" fill="#D9E5E7"/><rect x="22" y="56" width="96" height="10" rx="5" fill="#DB9B34"/>
  </g>
</g>

</svg>