<svg xmlns="http://www.w3.org/2000/svg" width="400" height="300" viewBox="0 0 400 300" role="img" aria-labelledby="title desc">
<title id="title">Empty simulation history state</title>
<desc id="desc">Editorial data illustration for the StatWise interface.</desc>
<defs>
  <filter id="shadow" x="-30%" y="-30%" width="160%" height="160%">
    <feDropShadow dx="0" dy="12" stdDeviation="14" flood-color="#18343A" flood-opacity=".12"/>
  </filter>
  <linearGradient id="tealGrad" x1="0" x2="1" y1="0" y2="1">
    <stop stop-color="#47AAA2"/>
    <stop offset="1" stop-color="#207A77"/>
  </linearGradient>
  <linearGradient id="skyGrad" x1="0" x2="0" y1="0" y2="1">
    <stop stop-color="#F1FBFA"/>
    <stop offset="1" stop-color="#E5F4F2"/>
  </linearGradient>
</defs>

<rect x="20" y="20" width="360" height="260" rx="28" fill="#F5FAFA"/>
<g filter="url(#shadow)">
<rect x="76" y="58" width="248" height="54" rx="16" fill="#FFFFFF"/>
<rect x="62" y="126" width="248" height="54" rx="16" fill="#FFFFFF"/>
<rect x="88" y="194" width="224" height="40" rx="15" fill="#FFFFFF"/>
</g>
<circle cx="102" cy="85" r="15" fill="#2B8F8A"/><rect x="130" y="77" width="122" height="10" rx="5" fill="#D9E5E7"/><rect x="130" y="94" width="74" height="7" rx="4" fill="#DDF3F0"/>
<circle cx="88" cy="153" r="15" fill="#4C78D8"/><rect x="116" y="145" width="122" height="10" rx="5" fill="#D9E5E7"/><rect x="116" y="162" width="94" height="7" rx="4" fill="#E5ECFF"/>
<circle cx="112" cy="214" r="10" fill="#DB9B34"/><rect x="132" y="209" width="112" height="9" rx="5" fill="#D9E5E7"/>
<path d="M288 79 a36 36 0 1 1 -18 -30" fill="none" stroke="#2B8F8A" stroke-width="7" stroke-linecap="round"/>
<path d="M270 45 l5 18 17-8" fill="none" stroke="#2B8F8A" stroke-width="6" stroke-linecap="round"/>

</svg>